<mxfile host="app.diagrams.net" modified="2020-12-28T06:32:07.508Z" agent="5.0 (X11; Linux x86_64) AppleWebKit/537.36 (KHTML, like Gecko) Chrome/87.0.4280.66 Safari/537.36" etag="fVWVRtXl_Qf3o4GiUlKu" version="13.10.6" type="github">
  <diagram id="HfLiJ4DD011SfzfWRTsT" name="Page-1">
    <mxGraphModel dx="1263" dy="709" grid="1" gridSize="10" guides="1" tooltips="1" connect="1" arrows="1" fold="1" page="1" pageScale="1" pageWidth="827" pageHeight="1169" math="1" shadow="0">
      <root>
        <mxCell id="0" />
        <mxCell id="1" parent="0" />
        <mxCell id="Oq3xh2eoCdKH_E2tni3q-53" value="&lt;b&gt;4. &lt;br&gt;&lt;/b&gt;Output Module" style="rounded=1;whiteSpace=wrap;html=1;fillColor=none;labelPosition=center;verticalLabelPosition=bottom;align=center;verticalAlign=top;dashed=1;arcSize=8;strokeColor=#999999;" vertex="1" parent="1">
          <mxGeometry x="590" y="240" width="100" height="100" as="geometry" />
        </mxCell>
        <mxCell id="Oq3xh2eoCdKH_E2tni3q-51" value="&lt;b&gt;3.&lt;br&gt;&lt;/b&gt;Reasoning&lt;br&gt;&amp;nbsp;Module" style="rounded=1;whiteSpace=wrap;html=1;fillColor=none;labelPosition=center;verticalLabelPosition=bottom;align=center;verticalAlign=top;dashed=1;arcSize=8;strokeColor=#999999;" vertex="1" parent="1">
          <mxGeometry x="360" y="240" width="200" height="100" as="geometry" />
        </mxCell>
        <mxCell id="9DUDsAGnaTjI5zjK5OL5-17" value="&lt;b&gt;1.&amp;nbsp;&lt;/b&gt;Question Embedding and Processing Module" style="rounded=1;whiteSpace=wrap;html=1;fillColor=none;labelPosition=center;verticalLabelPosition=top;align=center;verticalAlign=bottom;arcSize=8;dashed=1;shadow=0;glass=0;sketch=0;strokeColor=#999999;" parent="1" vertex="1">
          <mxGeometry x="70" y="40" width="270" height="240" as="geometry" />
        </mxCell>
        <mxCell id="OLSpMZ1pEOFonk4ee4Rg-14" value="" style="group" parent="1" vertex="1" connectable="0">
          <mxGeometry x="130" y="90" width="50" height="140" as="geometry" />
        </mxCell>
        <mxCell id="9DUDsAGnaTjI5zjK5OL5-105" style="edgeStyle=none;rounded=1;orthogonalLoop=1;jettySize=auto;html=1;startArrow=block;startFill=1;startSize=3;endArrow=none;endFill=0;endSize=3;strokeColor=#000000;strokeWidth=1;fontSize=8;" parent="OLSpMZ1pEOFonk4ee4Rg-14" edge="1">
          <mxGeometry x="-115" y="-11" as="geometry">
            <mxPoint x="30" y="9.5" as="targetPoint" />
            <mxPoint x="50" y="9.5" as="sourcePoint" />
          </mxGeometry>
        </mxCell>
        <mxCell id="OLSpMZ1pEOFonk4ee4Rg-3" value="What" style="rect;whiteSpace=wrap;html=1;fillColor=#f8cecc;strokeColor=#b85450;labelPosition=left;verticalLabelPosition=middle;align=right;verticalAlign=middle;spacingRight=10;fontStyle=2" parent="OLSpMZ1pEOFonk4ee4Rg-14" vertex="1">
          <mxGeometry width="20" height="20" as="geometry" />
        </mxCell>
        <mxCell id="OLSpMZ1pEOFonk4ee4Rg-4" value="is&lt;br&gt;" style="rect;whiteSpace=wrap;html=1;fillColor=#f8cecc;strokeColor=#b85450;labelPosition=left;verticalLabelPosition=middle;align=right;verticalAlign=middle;spacingRight=10;fontStyle=2" parent="OLSpMZ1pEOFonk4ee4Rg-14" vertex="1">
          <mxGeometry y="30" width="20" height="20" as="geometry" />
        </mxCell>
        <mxCell id="OLSpMZ1pEOFonk4ee4Rg-5" value="this" style="rect;whiteSpace=wrap;html=1;fillColor=#f8cecc;strokeColor=#b85450;labelPosition=left;verticalLabelPosition=middle;align=right;verticalAlign=middle;spacingRight=10;fontStyle=2" parent="OLSpMZ1pEOFonk4ee4Rg-14" vertex="1">
          <mxGeometry y="60" width="20" height="20" as="geometry" />
        </mxCell>
        <mxCell id="OLSpMZ1pEOFonk4ee4Rg-6" value="bird" style="rect;whiteSpace=wrap;html=1;fillColor=#f8cecc;strokeColor=#b85450;labelPosition=left;verticalLabelPosition=middle;align=right;verticalAlign=middle;spacingRight=10;fontStyle=2" parent="OLSpMZ1pEOFonk4ee4Rg-14" vertex="1">
          <mxGeometry y="90" width="20" height="20" as="geometry" />
        </mxCell>
        <mxCell id="OLSpMZ1pEOFonk4ee4Rg-7" value="called?" style="rect;whiteSpace=wrap;html=1;fillColor=#f8cecc;strokeColor=#b85450;labelPosition=left;verticalLabelPosition=middle;align=right;verticalAlign=middle;spacingRight=10;fontStyle=2" parent="OLSpMZ1pEOFonk4ee4Rg-14" vertex="1">
          <mxGeometry y="120" width="20" height="20" as="geometry" />
        </mxCell>
        <mxCell id="OLSpMZ1pEOFonk4ee4Rg-10" style="edgeStyle=none;rounded=1;orthogonalLoop=1;jettySize=auto;html=1;startArrow=block;startFill=1;startSize=3;endArrow=none;endFill=0;endSize=3;strokeColor=#000000;strokeWidth=1;fontSize=8;" parent="OLSpMZ1pEOFonk4ee4Rg-14" edge="1">
          <mxGeometry x="-115" y="19" as="geometry">
            <mxPoint x="30" y="39.5" as="targetPoint" />
            <mxPoint x="50" y="39.5" as="sourcePoint" />
          </mxGeometry>
        </mxCell>
        <mxCell id="OLSpMZ1pEOFonk4ee4Rg-11" style="edgeStyle=none;rounded=1;orthogonalLoop=1;jettySize=auto;html=1;startArrow=block;startFill=1;startSize=3;endArrow=none;endFill=0;endSize=3;strokeColor=#000000;strokeWidth=1;fontSize=8;" parent="OLSpMZ1pEOFonk4ee4Rg-14" edge="1">
          <mxGeometry x="-115" y="49" as="geometry">
            <mxPoint x="30" y="69.5" as="targetPoint" />
            <mxPoint x="50" y="69.5" as="sourcePoint" />
          </mxGeometry>
        </mxCell>
        <mxCell id="OLSpMZ1pEOFonk4ee4Rg-12" style="edgeStyle=none;rounded=1;orthogonalLoop=1;jettySize=auto;html=1;startArrow=block;startFill=1;startSize=3;endArrow=none;endFill=0;endSize=3;strokeColor=#000000;strokeWidth=1;fontSize=8;" parent="OLSpMZ1pEOFonk4ee4Rg-14" edge="1">
          <mxGeometry x="-115" y="79" as="geometry">
            <mxPoint x="30" y="99.5" as="targetPoint" />
            <mxPoint x="50" y="99.5" as="sourcePoint" />
          </mxGeometry>
        </mxCell>
        <mxCell id="OLSpMZ1pEOFonk4ee4Rg-13" style="edgeStyle=none;rounded=1;orthogonalLoop=1;jettySize=auto;html=1;startArrow=block;startFill=1;startSize=3;endArrow=none;endFill=0;endSize=3;strokeColor=#000000;strokeWidth=1;fontSize=8;" parent="OLSpMZ1pEOFonk4ee4Rg-14" edge="1">
          <mxGeometry x="-115" y="109" as="geometry">
            <mxPoint x="30" y="129.5" as="targetPoint" />
            <mxPoint x="50" y="129.5" as="sourcePoint" />
          </mxGeometry>
        </mxCell>
        <mxCell id="9DUDsAGnaTjI5zjK5OL5-45" value="&lt;i&gt;parrot&lt;/i&gt;" style="ellipse;whiteSpace=wrap;html=1;fillColor=#dae8fc;strokeColor=#6c8ebf;labelPosition=center;verticalLabelPosition=bottom;align=center;verticalAlign=top;" parent="1" vertex="1">
          <mxGeometry x="155" y="405" width="20" height="20" as="geometry" />
        </mxCell>
        <mxCell id="9DUDsAGnaTjI5zjK5OL5-82" style="edgeStyle=none;rounded=1;orthogonalLoop=1;jettySize=auto;html=1;exitX=1;exitY=0.5;exitDx=0;exitDy=0;dashed=1;startArrow=none;startFill=0;startSize=3;endArrow=none;endFill=0;endSize=3;strokeColor=#000000;strokeWidth=1;fontSize=8;" parent="1" source="9DUDsAGnaTjI5zjK5OL5-46" edge="1">
          <mxGeometry x="85" y="365" as="geometry">
            <mxPoint x="245" y="375.16666666666674" as="targetPoint" />
          </mxGeometry>
        </mxCell>
        <mxCell id="9DUDsAGnaTjI5zjK5OL5-46" value="&lt;i&gt;feathers&lt;/i&gt;" style="ellipse;whiteSpace=wrap;html=1;fillColor=#dae8fc;strokeColor=#6c8ebf;labelPosition=center;verticalLabelPosition=top;align=center;verticalAlign=bottom;" parent="1" vertex="1">
          <mxGeometry x="205" y="365" width="20" height="20" as="geometry" />
        </mxCell>
        <mxCell id="9DUDsAGnaTjI5zjK5OL5-75" style="edgeStyle=none;rounded=1;orthogonalLoop=1;jettySize=auto;html=1;exitX=0;exitY=0.5;exitDx=0;exitDy=0;entryX=1;entryY=0.5;entryDx=0;entryDy=0;startArrow=none;startFill=0;startSize=3;endArrow=block;endFill=1;endSize=3;strokeColor=#000000;strokeWidth=1;fontSize=8;" parent="1" source="9DUDsAGnaTjI5zjK5OL5-49" target="9DUDsAGnaTjI5zjK5OL5-45" edge="1">
          <mxGeometry x="85" y="365" as="geometry" />
        </mxCell>
        <mxCell id="9DUDsAGnaTjI5zjK5OL5-76" style="edgeStyle=none;rounded=1;orthogonalLoop=1;jettySize=auto;html=1;exitX=0.5;exitY=0;exitDx=0;exitDy=0;entryX=0.5;entryY=1;entryDx=0;entryDy=0;startArrow=none;startFill=0;startSize=3;endArrow=block;endFill=1;endSize=3;strokeColor=#000000;strokeWidth=1;fontSize=8;" parent="1" source="9DUDsAGnaTjI5zjK5OL5-49" target="9DUDsAGnaTjI5zjK5OL5-46" edge="1">
          <mxGeometry x="85" y="365" as="geometry" />
        </mxCell>
        <mxCell id="9DUDsAGnaTjI5zjK5OL5-83" style="edgeStyle=none;rounded=1;orthogonalLoop=1;jettySize=auto;html=1;exitX=1;exitY=0.5;exitDx=0;exitDy=0;dashed=1;startArrow=none;startFill=0;startSize=3;endArrow=none;endFill=0;endSize=3;strokeColor=#000000;strokeWidth=1;fontSize=8;" parent="1" source="9DUDsAGnaTjI5zjK5OL5-49" edge="1">
          <mxGeometry x="85" y="365" as="geometry">
            <mxPoint x="245" y="415.16666666666674" as="targetPoint" />
          </mxGeometry>
        </mxCell>
        <mxCell id="9DUDsAGnaTjI5zjK5OL5-49" value="&lt;i&gt;white&lt;/i&gt;" style="ellipse;whiteSpace=wrap;html=1;fillColor=#d5e8d4;strokeColor=#82b366;labelPosition=center;verticalLabelPosition=bottom;align=center;verticalAlign=top;" parent="1" vertex="1">
          <mxGeometry x="205" y="405" width="20" height="20" as="geometry" />
        </mxCell>
        <mxCell id="9DUDsAGnaTjI5zjK5OL5-81" style="edgeStyle=none;rounded=1;orthogonalLoop=1;jettySize=auto;html=1;exitX=0;exitY=0.5;exitDx=0;exitDy=0;startArrow=none;startFill=0;startSize=3;endArrow=none;endFill=0;endSize=3;strokeColor=#000000;strokeWidth=1;fontSize=8;dashed=1;" parent="1" source="9DUDsAGnaTjI5zjK5OL5-51" edge="1">
          <mxGeometry x="85" y="365" as="geometry">
            <mxPoint x="85" y="375" as="targetPoint" />
          </mxGeometry>
        </mxCell>
        <mxCell id="9DUDsAGnaTjI5zjK5OL5-51" value="&lt;i&gt;palm tree&lt;/i&gt;" style="ellipse;whiteSpace=wrap;html=1;fillColor=#dae8fc;strokeColor=#6c8ebf;labelPosition=center;verticalLabelPosition=top;align=center;verticalAlign=bottom;" parent="1" vertex="1">
          <mxGeometry x="105" y="365" width="20" height="20" as="geometry" />
        </mxCell>
        <mxCell id="9DUDsAGnaTjI5zjK5OL5-78" style="edgeStyle=none;rounded=1;orthogonalLoop=1;jettySize=auto;html=1;exitX=1;exitY=0.5;exitDx=0;exitDy=0;entryX=0;entryY=0.5;entryDx=0;entryDy=0;startArrow=none;startFill=0;startSize=3;endArrow=block;endFill=1;endSize=3;strokeColor=#000000;strokeWidth=1;fontSize=8;" parent="1" source="9DUDsAGnaTjI5zjK5OL5-52" target="9DUDsAGnaTjI5zjK5OL5-45" edge="1">
          <mxGeometry x="85" y="365" as="geometry" />
        </mxCell>
        <mxCell id="9DUDsAGnaTjI5zjK5OL5-52" value="&lt;i&gt;behind&lt;/i&gt;" style="ellipse;whiteSpace=wrap;html=1;fillColor=#ffe6cc;strokeColor=#d79b00;labelPosition=center;verticalLabelPosition=bottom;align=center;verticalAlign=top;" parent="1" vertex="1">
          <mxGeometry x="105" y="405" width="20" height="20" as="geometry" />
        </mxCell>
        <mxCell id="9DUDsAGnaTjI5zjK5OL5-77" style="edgeStyle=none;rounded=1;orthogonalLoop=1;jettySize=auto;html=1;exitX=0.5;exitY=1;exitDx=0;exitDy=0;entryX=0.5;entryY=0;entryDx=0;entryDy=0;startArrow=none;startFill=0;startSize=3;endArrow=block;endFill=1;endSize=3;strokeColor=#000000;strokeWidth=1;fontSize=8;" parent="1" source="9DUDsAGnaTjI5zjK5OL5-51" target="9DUDsAGnaTjI5zjK5OL5-52" edge="1">
          <mxGeometry x="85" y="365" as="geometry" />
        </mxCell>
        <mxCell id="9DUDsAGnaTjI5zjK5OL5-80" style="edgeStyle=none;rounded=1;orthogonalLoop=1;jettySize=auto;html=1;exitX=0;exitY=0.5;exitDx=0;exitDy=0;entryX=1;entryY=0.5;entryDx=0;entryDy=0;startArrow=none;startFill=0;startSize=3;endArrow=block;endFill=1;endSize=3;strokeColor=#000000;strokeWidth=1;fontSize=8;" parent="1" source="9DUDsAGnaTjI5zjK5OL5-53" target="9DUDsAGnaTjI5zjK5OL5-51" edge="1">
          <mxGeometry x="85" y="365" as="geometry" />
        </mxCell>
        <mxCell id="9DUDsAGnaTjI5zjK5OL5-53" value="&lt;i&gt;in front of&lt;/i&gt;" style="ellipse;whiteSpace=wrap;html=1;fillColor=#ffe6cc;strokeColor=#d79b00;labelPosition=center;verticalLabelPosition=top;align=center;verticalAlign=bottom;" parent="1" vertex="1">
          <mxGeometry x="155" y="365" width="20" height="20" as="geometry" />
        </mxCell>
        <mxCell id="9DUDsAGnaTjI5zjK5OL5-79" style="edgeStyle=none;rounded=1;orthogonalLoop=1;jettySize=auto;html=1;exitX=0.5;exitY=0;exitDx=0;exitDy=0;entryX=0.5;entryY=1;entryDx=0;entryDy=0;startArrow=none;startFill=0;startSize=3;endArrow=block;endFill=1;endSize=3;strokeColor=#000000;strokeWidth=1;fontSize=8;" parent="1" source="9DUDsAGnaTjI5zjK5OL5-45" target="9DUDsAGnaTjI5zjK5OL5-53" edge="1">
          <mxGeometry x="85" y="365" as="geometry" />
        </mxCell>
        <mxCell id="OLSpMZ1pEOFonk4ee4Rg-28" style="edgeStyle=orthogonalEdgeStyle;rounded=1;orthogonalLoop=1;jettySize=auto;html=1;startArrow=block;startFill=1;startSize=3;endArrow=none;endFill=0;endSize=3;strokeWidth=1;fontSize=8;entryX=1;entryY=0.5;entryDx=0;entryDy=0;" parent="1" source="OLSpMZ1pEOFonk4ee4Rg-30" target="Oq3xh2eoCdKH_E2tni3q-42" edge="1">
          <mxGeometry x="160" y="560" as="geometry">
            <mxPoint x="370" y="410" as="targetPoint" />
            <mxPoint x="420" y="360" as="sourcePoint" />
            <Array as="points">
              <mxPoint x="400" y="395" />
            </Array>
          </mxGeometry>
        </mxCell>
        <mxCell id="OLSpMZ1pEOFonk4ee4Rg-30" value="Compositional Attention Network" style="rounded=1;whiteSpace=wrap;html=1;fillColor=#f5f5f5;strokeColor=#666666;fontColor=#333333;" parent="1" vertex="1">
          <mxGeometry x="380" y="260" width="160" height="60" as="geometry" />
        </mxCell>
        <mxCell id="OLSpMZ1pEOFonk4ee4Rg-31" value="Fusion &amp;amp; MLP" style="rounded=1;whiteSpace=wrap;html=1;fillColor=#f5f5f5;strokeColor=#666666;fontColor=#333333;" parent="1" vertex="1">
          <mxGeometry x="610" y="260" width="60" height="60" as="geometry" />
        </mxCell>
        <mxCell id="OLSpMZ1pEOFonk4ee4Rg-32" style="edgeStyle=orthogonalEdgeStyle;rounded=1;orthogonalLoop=1;jettySize=auto;html=1;startArrow=block;startFill=1;startSize=3;endArrow=none;endFill=0;endSize=3;strokeWidth=1;fontSize=8;entryX=0.1;entryY=0.5;entryDx=0;entryDy=0;entryPerimeter=0;" parent="1" source="OLSpMZ1pEOFonk4ee4Rg-30" target="Oq3xh2eoCdKH_E2tni3q-22" edge="1">
          <mxGeometry x="170" y="570" as="geometry">
            <mxPoint x="420" y="110" as="targetPoint" />
            <mxPoint x="400" y="220" as="sourcePoint" />
            <Array as="points">
              <mxPoint x="400" y="160" />
            </Array>
          </mxGeometry>
        </mxCell>
        <mxCell id="OLSpMZ1pEOFonk4ee4Rg-33" style="edgeStyle=none;rounded=1;orthogonalLoop=1;jettySize=auto;html=1;startArrow=block;startFill=1;startSize=3;endArrow=none;endFill=0;endSize=3;strokeColor=#000000;strokeWidth=1;fontSize=8;" parent="1" edge="1">
          <mxGeometry x="-150" y="154" as="geometry">
            <mxPoint x="235" y="395" as="targetPoint" />
            <mxPoint x="255" y="395" as="sourcePoint" />
          </mxGeometry>
        </mxCell>
        <mxCell id="OLSpMZ1pEOFonk4ee4Rg-52" style="edgeStyle=none;rounded=1;orthogonalLoop=1;jettySize=auto;html=1;startArrow=block;startFill=1;startSize=3;endArrow=none;endFill=0;endSize=3;strokeColor=#000000;strokeWidth=1;fontSize=8;entryX=1;entryY=0.5;entryDx=0;entryDy=0;" parent="1" target="OLSpMZ1pEOFonk4ee4Rg-31" edge="1">
          <mxGeometry x="-50" y="169" as="geometry">
            <mxPoint x="615" y="290" as="targetPoint" />
            <mxPoint x="740" y="290" as="sourcePoint" />
          </mxGeometry>
        </mxCell>
        <mxCell id="OLSpMZ1pEOFonk4ee4Rg-53" value="Cross&lt;br&gt;Entropy&lt;br&gt;Loss" style="text;html=1;align=center;verticalAlign=middle;resizable=0;points=[];autosize=1;" parent="1" vertex="1">
          <mxGeometry x="720" y="165" width="60" height="50" as="geometry" />
        </mxCell>
        <mxCell id="OLSpMZ1pEOFonk4ee4Rg-71" value="" style="group" parent="1" vertex="1" connectable="0">
          <mxGeometry x="745" y="220" width="10" height="140" as="geometry" />
        </mxCell>
        <mxCell id="OLSpMZ1pEOFonk4ee4Rg-58" value="" style="rect;whiteSpace=wrap;html=1;strokeColor=#666666;labelPosition=left;verticalLabelPosition=middle;align=right;verticalAlign=middle;spacingRight=10;fontStyle=2;fontColor=#333333;fillColor=#f5f5f5;" parent="OLSpMZ1pEOFonk4ee4Rg-71" vertex="1">
          <mxGeometry y="85" width="10" height="10" as="geometry" />
        </mxCell>
        <mxCell id="OLSpMZ1pEOFonk4ee4Rg-59" value="" style="rect;whiteSpace=wrap;html=1;strokeColor=#666666;labelPosition=left;verticalLabelPosition=middle;align=right;verticalAlign=middle;spacingRight=10;fontStyle=2;fontColor=#333333;fillColor=#f5f5f5;" parent="OLSpMZ1pEOFonk4ee4Rg-71" vertex="1">
          <mxGeometry y="100" width="10" height="10" as="geometry" />
        </mxCell>
        <mxCell id="OLSpMZ1pEOFonk4ee4Rg-60" value="" style="rect;whiteSpace=wrap;html=1;strokeColor=#666666;labelPosition=left;verticalLabelPosition=middle;align=right;verticalAlign=middle;spacingRight=10;fontStyle=2;fontColor=#333333;fillColor=#f5f5f5;" parent="OLSpMZ1pEOFonk4ee4Rg-71" vertex="1">
          <mxGeometry y="115" width="10" height="10" as="geometry" />
        </mxCell>
        <mxCell id="OLSpMZ1pEOFonk4ee4Rg-61" value="" style="rect;whiteSpace=wrap;html=1;strokeColor=#666666;labelPosition=left;verticalLabelPosition=middle;align=right;verticalAlign=middle;spacingRight=10;fontStyle=2;fontColor=#333333;fillColor=#f5f5f5;" parent="OLSpMZ1pEOFonk4ee4Rg-71" vertex="1">
          <mxGeometry y="130" width="10" height="10" as="geometry" />
        </mxCell>
        <mxCell id="OLSpMZ1pEOFonk4ee4Rg-64" value="" style="rect;whiteSpace=wrap;html=1;strokeColor=#666666;labelPosition=left;verticalLabelPosition=middle;align=right;verticalAlign=middle;spacingRight=10;fontStyle=2;fontColor=#333333;fillColor=#f5f5f5;" parent="OLSpMZ1pEOFonk4ee4Rg-71" vertex="1">
          <mxGeometry width="10" height="10" as="geometry" />
        </mxCell>
        <mxCell id="OLSpMZ1pEOFonk4ee4Rg-65" value="" style="rect;whiteSpace=wrap;html=1;strokeColor=#666666;labelPosition=left;verticalLabelPosition=middle;align=right;verticalAlign=middle;spacingRight=10;fontStyle=2;fontColor=#333333;fillColor=#f5f5f5;" parent="OLSpMZ1pEOFonk4ee4Rg-71" vertex="1">
          <mxGeometry y="15" width="10" height="10" as="geometry" />
        </mxCell>
        <mxCell id="OLSpMZ1pEOFonk4ee4Rg-66" value="parrot" style="rect;whiteSpace=wrap;html=1;labelPosition=right;verticalLabelPosition=middle;align=left;verticalAlign=middle;spacingRight=0;fontStyle=2;spacingLeft=5;strokeColor=#666666;fontColor=#333333;fillColor=#999999;" parent="OLSpMZ1pEOFonk4ee4Rg-71" vertex="1">
          <mxGeometry y="30" width="10" height="10" as="geometry" />
        </mxCell>
        <mxCell id="OLSpMZ1pEOFonk4ee4Rg-67" value="" style="rect;whiteSpace=wrap;html=1;strokeColor=#666666;labelPosition=left;verticalLabelPosition=middle;align=right;verticalAlign=middle;spacingRight=10;fontStyle=2;fontColor=#333333;fillColor=#f5f5f5;" parent="OLSpMZ1pEOFonk4ee4Rg-71" vertex="1">
          <mxGeometry y="45" width="10" height="10" as="geometry" />
        </mxCell>
        <mxCell id="OLSpMZ1pEOFonk4ee4Rg-68" style="edgeStyle=none;rounded=1;orthogonalLoop=1;jettySize=auto;html=1;dashed=1;startArrow=none;startFill=0;startSize=3;endArrow=none;endFill=0;endSize=3;strokeColor=#000000;strokeWidth=1;fontSize=8;" parent="OLSpMZ1pEOFonk4ee4Rg-71" edge="1">
          <mxGeometry x="-135" y="64.82999999999998" as="geometry">
            <mxPoint x="5" y="75" as="targetPoint" />
            <mxPoint x="5" y="65" as="sourcePoint" />
          </mxGeometry>
        </mxCell>
        <mxCell id="Oq3xh2eoCdKH_E2tni3q-2" value="Bi-LSTM" style="rounded=1;whiteSpace=wrap;html=1;labelBackgroundColor=none;labelPosition=center;verticalLabelPosition=middle;align=center;verticalAlign=middle;fillColor=#f5f5f5;strokeColor=#666666;fontColor=#333333;" vertex="1" parent="1">
          <mxGeometry x="190" y="80" width="60" height="160" as="geometry" />
        </mxCell>
        <mxCell id="Oq3xh2eoCdKH_E2tni3q-3" value="$$H_q$$" style="text;html=1;align=center;verticalAlign=middle;resizable=0;points=[];autosize=1;" vertex="1" parent="1">
          <mxGeometry x="110" y="60" width="60" height="20" as="geometry" />
        </mxCell>
        <mxCell id="Oq3xh2eoCdKH_E2tni3q-19" value="" style="group" vertex="1" connectable="0" parent="1">
          <mxGeometry x="260" y="90" width="46" height="140" as="geometry" />
        </mxCell>
        <mxCell id="Oq3xh2eoCdKH_E2tni3q-17" value="" style="group;" vertex="1" connectable="0" parent="Oq3xh2eoCdKH_E2tni3q-19">
          <mxGeometry x="26" width="20" height="140" as="geometry" />
        </mxCell>
        <mxCell id="Oq3xh2eoCdKH_E2tni3q-6" value="" style="rect;whiteSpace=wrap;html=1;fillColor=#e1d5e7;strokeColor=#9673a6;labelPosition=left;verticalLabelPosition=middle;align=right;verticalAlign=middle;spacingRight=10;fontStyle=2" vertex="1" parent="Oq3xh2eoCdKH_E2tni3q-17">
          <mxGeometry width="20" height="20" as="geometry" />
        </mxCell>
        <mxCell id="Oq3xh2eoCdKH_E2tni3q-7" value="" style="rect;whiteSpace=wrap;html=1;fillColor=#e1d5e7;strokeColor=#9673a6;labelPosition=left;verticalLabelPosition=middle;align=right;verticalAlign=middle;spacingRight=10;fontStyle=2" vertex="1" parent="Oq3xh2eoCdKH_E2tni3q-17">
          <mxGeometry y="30" width="20" height="20" as="geometry" />
        </mxCell>
        <mxCell id="Oq3xh2eoCdKH_E2tni3q-8" value="" style="rect;whiteSpace=wrap;html=1;fillColor=#e1d5e7;strokeColor=#9673a6;labelPosition=left;verticalLabelPosition=middle;align=right;verticalAlign=middle;spacingRight=10;fontStyle=2" vertex="1" parent="Oq3xh2eoCdKH_E2tni3q-17">
          <mxGeometry y="60" width="20" height="20" as="geometry" />
        </mxCell>
        <mxCell id="Oq3xh2eoCdKH_E2tni3q-9" value="" style="rect;whiteSpace=wrap;html=1;fillColor=#e1d5e7;strokeColor=#9673a6;labelPosition=left;verticalLabelPosition=middle;align=right;verticalAlign=middle;spacingRight=10;fontStyle=2" vertex="1" parent="Oq3xh2eoCdKH_E2tni3q-17">
          <mxGeometry y="90" width="20" height="20" as="geometry" />
        </mxCell>
        <mxCell id="Oq3xh2eoCdKH_E2tni3q-10" value="" style="rect;whiteSpace=wrap;html=1;fillColor=#e1d5e7;strokeColor=#9673a6;labelPosition=left;verticalLabelPosition=middle;align=right;verticalAlign=middle;spacingRight=10;fontStyle=2" vertex="1" parent="Oq3xh2eoCdKH_E2tni3q-17">
          <mxGeometry y="120" width="20" height="20" as="geometry" />
        </mxCell>
        <mxCell id="Oq3xh2eoCdKH_E2tni3q-18" value="" style="group" vertex="1" connectable="0" parent="Oq3xh2eoCdKH_E2tni3q-19">
          <mxGeometry y="9.5" width="20" height="120" as="geometry" />
        </mxCell>
        <mxCell id="Oq3xh2eoCdKH_E2tni3q-5" style="edgeStyle=none;rounded=1;orthogonalLoop=1;jettySize=auto;html=1;startArrow=block;startFill=1;startSize=3;endArrow=none;endFill=0;endSize=3;strokeColor=#000000;strokeWidth=1;fontSize=8;" edge="1" parent="Oq3xh2eoCdKH_E2tni3q-18">
          <mxGeometry x="-145" y="-20.5" as="geometry">
            <mxPoint as="targetPoint" />
            <mxPoint x="20" as="sourcePoint" />
          </mxGeometry>
        </mxCell>
        <mxCell id="Oq3xh2eoCdKH_E2tni3q-11" style="edgeStyle=none;rounded=1;orthogonalLoop=1;jettySize=auto;html=1;startArrow=block;startFill=1;startSize=3;endArrow=none;endFill=0;endSize=3;strokeColor=#000000;strokeWidth=1;fontSize=8;" edge="1" parent="Oq3xh2eoCdKH_E2tni3q-18">
          <mxGeometry x="-145" y="9.5" as="geometry">
            <mxPoint y="30" as="targetPoint" />
            <mxPoint x="20" y="30" as="sourcePoint" />
          </mxGeometry>
        </mxCell>
        <mxCell id="Oq3xh2eoCdKH_E2tni3q-12" style="edgeStyle=none;rounded=1;orthogonalLoop=1;jettySize=auto;html=1;startArrow=block;startFill=1;startSize=3;endArrow=none;endFill=0;endSize=3;strokeColor=#000000;strokeWidth=1;fontSize=8;" edge="1" parent="Oq3xh2eoCdKH_E2tni3q-18">
          <mxGeometry x="-145" y="39.5" as="geometry">
            <mxPoint y="60" as="targetPoint" />
            <mxPoint x="20" y="60" as="sourcePoint" />
          </mxGeometry>
        </mxCell>
        <mxCell id="Oq3xh2eoCdKH_E2tni3q-13" style="edgeStyle=none;rounded=1;orthogonalLoop=1;jettySize=auto;html=1;startArrow=block;startFill=1;startSize=3;endArrow=none;endFill=0;endSize=3;strokeColor=#000000;strokeWidth=1;fontSize=8;" edge="1" parent="Oq3xh2eoCdKH_E2tni3q-18">
          <mxGeometry x="-145" y="69.5" as="geometry">
            <mxPoint y="90" as="targetPoint" />
            <mxPoint x="20" y="90" as="sourcePoint" />
          </mxGeometry>
        </mxCell>
        <mxCell id="Oq3xh2eoCdKH_E2tni3q-14" style="edgeStyle=none;rounded=1;orthogonalLoop=1;jettySize=auto;html=1;startArrow=block;startFill=1;startSize=3;endArrow=none;endFill=0;endSize=3;strokeColor=#000000;strokeWidth=1;fontSize=8;" edge="1" parent="Oq3xh2eoCdKH_E2tni3q-18">
          <mxGeometry x="-145" y="99.5" as="geometry">
            <mxPoint y="120" as="targetPoint" />
            <mxPoint x="20" y="120" as="sourcePoint" />
          </mxGeometry>
        </mxCell>
        <mxCell id="Oq3xh2eoCdKH_E2tni3q-21" value="$$\mathcal{Q}_q$$" style="text;html=1;align=center;verticalAlign=middle;resizable=0;points=[];autosize=1;" vertex="1" parent="1">
          <mxGeometry x="300" y="70" width="120" height="20" as="geometry" />
        </mxCell>
        <mxCell id="Oq3xh2eoCdKH_E2tni3q-22" value="" style="shape=curlyBracket;whiteSpace=wrap;html=1;rounded=1;align=center;direction=west;" vertex="1" parent="1">
          <mxGeometry x="316" y="80" width="20" height="160" as="geometry" />
        </mxCell>
        <mxCell id="Oq3xh2eoCdKH_E2tni3q-27" value="$$K_q$$" style="text;html=1;align=center;verticalAlign=middle;resizable=0;points=[];autosize=1;" vertex="1" parent="1">
          <mxGeometry x="330" y="170" width="60" height="20" as="geometry" />
        </mxCell>
        <mxCell id="Oq3xh2eoCdKH_E2tni3q-38" style="edgeStyle=orthogonalEdgeStyle;rounded=1;orthogonalLoop=1;jettySize=auto;html=1;startArrow=block;startFill=1;startSize=3;endArrow=none;endFill=0;endSize=3;strokeWidth=1;fontSize=8;entryX=0.5;entryY=0;entryDx=0;entryDy=0;" edge="1" parent="1" source="OLSpMZ1pEOFonk4ee4Rg-30" target="Oq3xh2eoCdKH_E2tni3q-2">
          <mxGeometry x="180" y="580" as="geometry">
            <mxPoint x="660" y="570" as="targetPoint" />
            <mxPoint x="440" y="220" as="sourcePoint" />
            <Array as="points">
              <mxPoint x="440" y="60" />
              <mxPoint x="220" y="60" />
            </Array>
          </mxGeometry>
        </mxCell>
        <mxCell id="Oq3xh2eoCdKH_E2tni3q-40" value="$$K_v$$" style="text;html=1;align=center;verticalAlign=middle;resizable=0;points=[];autosize=1;" vertex="1" parent="1">
          <mxGeometry x="330" y="370" width="60" height="20" as="geometry" />
        </mxCell>
        <mxCell id="Oq3xh2eoCdKH_E2tni3q-41" value="$$(\mathcal{G}_v, H_v)$$" style="text;html=1;align=center;verticalAlign=middle;resizable=0;points=[];autosize=1;" vertex="1" parent="1">
          <mxGeometry x="85" y="455" width="160" height="20" as="geometry" />
        </mxCell>
        <mxCell id="Oq3xh2eoCdKH_E2tni3q-42" value="GAT" style="rounded=1;whiteSpace=wrap;html=1;labelBackgroundColor=none;labelPosition=center;verticalLabelPosition=middle;align=center;verticalAlign=middle;fillColor=#f5f5f5;strokeColor=#666666;fontColor=#333333;" vertex="1" parent="1">
          <mxGeometry x="260" y="320" width="60" height="150" as="geometry" />
        </mxCell>
        <mxCell id="Oq3xh2eoCdKH_E2tni3q-43" value="&lt;b&gt;2.&amp;nbsp;&lt;/b&gt;Scene Graph Embedding and Processing Module" style="rounded=1;whiteSpace=wrap;html=1;fillColor=none;labelPosition=center;verticalLabelPosition=bottom;align=center;verticalAlign=top;dashed=1;arcSize=8;strokeColor=#999999;" vertex="1" parent="1">
          <mxGeometry x="70" y="300" width="270" height="190" as="geometry" />
        </mxCell>
        <mxCell id="Oq3xh2eoCdKH_E2tni3q-46" style="edgeStyle=orthogonalEdgeStyle;rounded=1;jumpStyle=arc;jumpSize=6;orthogonalLoop=1;jettySize=auto;html=1;endArrow=open;endFill=0;exitX=0.5;exitY=1;exitDx=0;exitDy=0;" edge="1" parent="1" source="Oq3xh2eoCdKH_E2tni3q-2">
          <mxGeometry relative="1" as="geometry">
            <mxPoint x="280" y="60" as="targetPoint" />
            <mxPoint x="360" y="290" as="sourcePoint" />
            <Array as="points">
              <mxPoint x="220" y="260" />
              <mxPoint x="265" y="260" />
              <mxPoint x="265" y="60" />
            </Array>
          </mxGeometry>
        </mxCell>
        <mxCell id="Oq3xh2eoCdKH_E2tni3q-47" style="edgeStyle=orthogonalEdgeStyle;rounded=1;orthogonalLoop=1;jettySize=auto;html=1;startArrow=block;startFill=1;startSize=3;endArrow=none;endFill=0;endSize=3;strokeWidth=1;fontSize=8;exitX=0.5;exitY=0;exitDx=0;exitDy=0;" edge="1" parent="1" source="OLSpMZ1pEOFonk4ee4Rg-31">
          <mxGeometry x="325" y="540" as="geometry">
            <mxPoint x="440" y="160" as="targetPoint" />
            <mxPoint x="585" y="190" as="sourcePoint" />
            <Array as="points">
              <mxPoint x="640" y="200" />
              <mxPoint x="440" y="200" />
            </Array>
          </mxGeometry>
        </mxCell>
        <mxCell id="Oq3xh2eoCdKH_E2tni3q-48" value="$$\hat{a}$$" style="text;html=1;align=center;verticalAlign=middle;resizable=0;points=[];autosize=1;" vertex="1" parent="1">
          <mxGeometry x="670" y="270" width="80" height="20" as="geometry" />
        </mxCell>
        <mxCell id="Oq3xh2eoCdKH_E2tni3q-50" value="$$m$$" style="text;html=1;align=center;verticalAlign=middle;resizable=0;points=[];autosize=1;" vertex="1" parent="1">
          <mxGeometry x="550" y="270" width="50" height="20" as="geometry" />
        </mxCell>
        <mxCell id="Oq3xh2eoCdKH_E2tni3q-58" style="edgeStyle=none;rounded=1;orthogonalLoop=1;jettySize=auto;html=1;startArrow=block;startFill=1;startSize=3;endArrow=none;endFill=0;endSize=3;strokeColor=#000000;strokeWidth=1;fontSize=8;entryX=1;entryY=0.5;entryDx=0;entryDy=0;exitX=0;exitY=0.5;exitDx=0;exitDy=0;" edge="1" parent="1" source="OLSpMZ1pEOFonk4ee4Rg-31" target="OLSpMZ1pEOFonk4ee4Rg-30">
          <mxGeometry x="-50" y="179" as="geometry">
            <mxPoint x="690" y="300" as="targetPoint" />
            <mxPoint x="710" y="100" as="sourcePoint" />
          </mxGeometry>
        </mxCell>
        <mxCell id="Oq3xh2eoCdKH_E2tni3q-67" value="" style="group" vertex="1" connectable="0" parent="1">
          <mxGeometry x="480" y="25" width="310" height="110" as="geometry" />
        </mxCell>
        <mxCell id="Oq3xh2eoCdKH_E2tni3q-66" value="&lt;span style=&quot;font-style: normal&quot;&gt;Contextual Word&lt;br&gt;Vector&lt;/span&gt;" style="rect;html=1;fillColor=#e1d5e7;strokeColor=#9673a6;labelPosition=center;verticalLabelPosition=top;align=center;verticalAlign=bottom;spacingRight=10;fontStyle=2;spacingLeft=5;whiteSpace=wrap;" vertex="1" parent="Oq3xh2eoCdKH_E2tni3q-67">
          <mxGeometry x="260" y="80" width="20" height="20" as="geometry" />
        </mxCell>
        <mxCell id="OLSpMZ1pEOFonk4ee4Rg-36" value="&lt;b&gt;Legend&lt;/b&gt;" style="text;html=1;align=center;verticalAlign=middle;resizable=0;points=[];autosize=1;" parent="Oq3xh2eoCdKH_E2tni3q-67" vertex="1">
          <mxGeometry x="120" width="60" height="20" as="geometry" />
        </mxCell>
        <mxCell id="OLSpMZ1pEOFonk4ee4Rg-39" value="Relation&lt;br&gt;Vector" style="ellipse;whiteSpace=wrap;html=1;fillColor=#ffe6cc;strokeColor=#d79b00;labelPosition=center;verticalLabelPosition=top;align=center;verticalAlign=bottom;spacingRight=5;fontStyle=0;spacingLeft=5;" parent="Oq3xh2eoCdKH_E2tni3q-67" vertex="1">
          <mxGeometry x="80" y="75" width="20" height="20" as="geometry" />
        </mxCell>
        <mxCell id="OLSpMZ1pEOFonk4ee4Rg-40" value="Attribute&lt;br&gt;Vector" style="ellipse;whiteSpace=wrap;html=1;fillColor=#d5e8d4;strokeColor=#82b366;labelPosition=center;verticalLabelPosition=top;align=center;verticalAlign=bottom;spacingRight=5;fontStyle=0;spacingLeft=5;" parent="Oq3xh2eoCdKH_E2tni3q-67" vertex="1">
          <mxGeometry x="140" y="75" width="20" height="20" as="geometry" />
        </mxCell>
        <mxCell id="OLSpMZ1pEOFonk4ee4Rg-41" value="Object&lt;br&gt;Vector" style="ellipse;whiteSpace=wrap;html=1;fillColor=#dae8fc;strokeColor=#6c8ebf;labelPosition=center;verticalLabelPosition=top;align=center;verticalAlign=bottom;spacingRight=5;fontStyle=0;spacingLeft=5;" parent="Oq3xh2eoCdKH_E2tni3q-67" vertex="1">
          <mxGeometry x="20" y="75" width="20" height="20" as="geometry" />
        </mxCell>
        <mxCell id="OLSpMZ1pEOFonk4ee4Rg-44" value="&lt;span style=&quot;font-style: normal&quot;&gt;Word&lt;br&gt;Vector&lt;/span&gt;" style="rect;whiteSpace=wrap;html=1;fillColor=#f8cecc;strokeColor=#b85450;labelPosition=center;verticalLabelPosition=top;align=center;verticalAlign=bottom;spacingRight=10;fontStyle=2;spacingLeft=5;" parent="Oq3xh2eoCdKH_E2tni3q-67" vertex="1">
          <mxGeometry x="200" y="75" width="20" height="20" as="geometry" />
        </mxCell>
      </root>
    </mxGraphModel>
  </diagram>
</mxfile>
